<svg xmlns="http://www.w3.org/2000/svg" viewBox="0 0 1920 1093"><title>purpleAsset 2</title><g id="Layer_2" data-name="Layer 2"><g id="Layer_1-2" data-name="Layer 1"><rect width="1920" height="1093" fill="#eee"/><path d="M782,205a18.94,18.94,0,0,0-18.94,18.94V431.75h-.39V868.1A18.94,18.94,0,0,0,781.62,887h362.75a18.94,18.94,0,0,0,18.94-18.94V223.9A18.94,18.94,0,0,0,1144.38,205Zm344.09,661.13H799.9A18.94,18.94,0,0,1,781,847.14V451.73a18.94,18.94,0,0,1,18.94-18.94h326.2a18.94,18.94,0,0,1,18.94,18.94V847.14A18.94,18.94,0,0,1,1126.11,866.08Zm0-451.58H800.28a18.94,18.94,0,0,1-18.94-18.94V242.18a18.94,18.94,0,0,1,18.94-18.94h325.82a18.94,18.94,0,0,1,18.94,18.94V395.56A18.94,18.94,0,0,1,1126.11,414.5Z" fill="#f01111"/><path d="M951.61,245.88H936.86v.3l-.14-.15-31.76,31.76a2.66,2.66,0,0,1-3.77,0l-8.35-8.35a2.66,2.66,0,0,1-.78-1.88v-19a2.67,2.67,0,0,0-2.67-2.67H874.86l-.11-.11-.11.11h0L842.51,278a2.66,2.66,0,0,1-3.77,0l-8.15-8.14a2.66,2.66,0,0,1-.78-1.88V248.55a2.67,2.67,0,0,0-2.67-2.67H815.06a2.67,2.67,0,0,0-2.67,2.67v139a2.66,2.66,0,0,0,2.67,2.66h12.09a2.66,2.66,0,0,0,2.67-2.66V375.5a2.67,2.67,0,0,1,2.66-2.67H934.19a2.67,2.67,0,0,1,2.67,2.67V387.6a2.66,2.66,0,0,0,2.66,2.66h12.09a2.67,2.67,0,0,0,2.67-2.66v-139A2.67,2.67,0,0,0,951.61,245.88Zm-121.8,92.31V299.66a2.67,2.67,0,0,1,4.56-1.88L853.62,317a2.66,2.66,0,0,1,0,3.77l-19.26,19.26A2.67,2.67,0,0,1,829.81,338.18Zm44.81,14.56a2.67,2.67,0,0,1-2.66,2.67H849.61a2.67,2.67,0,0,1-1.88-4.55l22.34-22.35a2.67,2.67,0,0,1,4.55,1.89Zm0-54a2.66,2.66,0,0,1-.78,1.88L869.47,305a2.66,2.66,0,0,1-3.77,0l-11.12-11.12a2.67,2.67,0,0,1,0-3.78l15.49-15.49a2.67,2.67,0,0,1,4.55,1.88ZM892,338.07V299.24a2.67,2.67,0,0,1,4.55-1.88L916,316.77a2.67,2.67,0,0,1,0,3.78L896.6,340A2.66,2.66,0,0,1,892,338.07Zm44.81,14.67a2.67,2.67,0,0,1-2.67,2.67H911.72a2.67,2.67,0,0,1-1.88-4.55L932.3,328.4a2.67,2.67,0,0,1,4.55,1.88Zm0-54.15a2.64,2.64,0,0,1-.79,1.88l-4.21,4.21a2.66,2.66,0,0,1-3.77,0L917,293.63a2.68,2.68,0,0,1,0-3.77l15.28-15.28a2.67,2.67,0,0,1,4.55,1.88Z" fill="#f01111"/><path d="M1098.3,355.85h12.2a3.12,3.12,0,0,0,3.11-3.11v-11.2a3.11,3.11,0,0,0-3.11-3.11H974.83a3.11,3.11,0,0,0-3.11,3.11v11.2a3.12,3.12,0,0,0,3.11,3.11h11.65a3.11,3.11,0,0,1,2.16,5.35L977,372.4a3.12,3.12,0,0,1-2.16.87h-.05a3.11,3.11,0,0,0-3.11,3.11v11.2a3.11,3.11,0,0,0,3.11,3.11H1110.5a3.11,3.11,0,0,0,3.11-3.11v-11.2a3.11,3.11,0,0,0-3.11-3.11h-.61a3.12,3.12,0,0,1-2.16-.87l-11.59-11.2A3.11,3.11,0,0,1,1098.3,355.85Zm-21.2,17.42h-69.42a3.11,3.11,0,0,1-2.17-5.34l11.49-11.2a3.1,3.1,0,0,1,2.17-.88h46.45a3.13,3.13,0,0,1,2.18.88l11.48,11.21A3.11,3.11,0,0,1,1077.1,373.27Z" fill="#f01111"/><path d="M1051.38,278.05V266.2a3.11,3.11,0,0,1,3.11-3.11h38.45A3.11,3.11,0,0,0,1096,260V249.41a3.11,3.11,0,0,0-3.11-3.11H992.13a3.11,3.11,0,0,0-3.11,3.11V260a3.11,3.11,0,0,0,3.11,3.11h38.71a3.11,3.11,0,0,1,3.11,3.11v11.85a3.11,3.11,0,0,1-3.11,3.11h-56a3.11,3.11,0,0,0-3.11,3.11v16.18a3.11,3.11,0,0,0,3.11,3.11H986a3.11,3.11,0,0,0,3.11-3.11h0a3.11,3.11,0,0,1,3.11-3.11h38.59a3.11,3.11,0,0,1,3.11,3.11v10a3.11,3.11,0,0,1-3.11,3.11h-47.3a3.11,3.11,0,0,0-3.11,3.11v10a3.11,3.11,0,0,0,3.11,3.11h118.24a3.11,3.11,0,0,0,3.11-3.11v-10a3.11,3.11,0,0,0-3.11-3.11h-47.3a3.11,3.11,0,0,1-3.11-3.11v-10a3.11,3.11,0,0,1,3.11-3.11h38.59a3.11,3.11,0,0,1,3.11,3.11h0a3.11,3.11,0,0,0,3.11,3.11h11.2a3.11,3.11,0,0,0,3.11-3.11V284.28a3.11,3.11,0,0,0-3.11-3.11h-56A3.11,3.11,0,0,1,1051.38,278.05Z" fill="#f01111"/><path d="M1083.48,586.6a124.55,124.55,0,0,0-40.4-71.69A120.8,120.8,0,0,0,966.36,485q-1.38,0-2.76,0a122.59,122.59,0,0,0-46.21,9,121.06,121.06,0,0,0-49.29,37,125.51,125.51,0,0,0-25.14,56c-1.13,6.42-2.17,13-3.08,19.51a554.84,554.84,0,0,0,1.63,163.52c.12.74.23,1.48.35,2.22,1.8,11.68,4.54,29.31,22,40.07a44.39,44.39,0,0,0,23.32,6.53,45.24,45.24,0,0,0,6.69-.49c7.86-1.18,13.77-4.58,18.08-7,1.45-.83,2.82-1.62,3.84-2.07a3.41,3.41,0,0,1,1.32-.3,1.1,1.1,0,0,1,.24,0,33.32,33.32,0,0,1,6,3.5c4.19,2.76,9.39,6.2,16.15,8.32a63.86,63.86,0,0,0,19.19,2.94c1.33,0,2.68-.05,4-.13,12.75-.79,23.29-6.42,30.26-10.16a36.21,36.21,0,0,1,17-4.4,29.75,29.75,0,0,1,5.13.44c1.9.34,4.14.93,6.5,1.55,5.59,1.47,11.92,3.14,19.25,3.14a44.51,44.51,0,0,0,7-.54c18-2.87,32.79-17.79,36-36.31.3-1.68.58-3.37.86-5.06a554.09,554.09,0,0,0,7.25-89.4C1091.88,658.7,1091.88,633.86,1083.48,586.6Zm-38.86,207.16a24.57,24.57,0,0,1-3.82.29c-7.44,0-14.81-3.06-22.25-4.38a49,49,0,0,0-8.63-.75,56.38,56.38,0,0,0-26.4,6.77c-7,3.73-14,7.33-22.05,7.83-.92.06-1.84.09-2.77.09a44,44,0,0,1-13.2-2c-8.22-2.58-14.19-9.41-22.39-11.89a20.83,20.83,0,0,0-6-.87,23.32,23.32,0,0,0-9.41,2c-5.71,2.52-10.47,6.68-16.79,7.63a25.81,25.81,0,0,1-3.73.27,24.56,24.56,0,0,1-12.83-3.55C864,788.81,863,777.61,861.26,766.75a534.65,534.65,0,0,1-1.57-157.59q1.32-9.46,3-18.8c6.15-34.89,29.39-64.65,62.23-77.93a103,103,0,0,1,38.71-7.5c.77,0,1.55,0,2.32,0,48.68,1.07,89.34,37.19,97.86,85.13,8.1,45.53,8.1,69.27,8.1,92.64a531.88,531.88,0,0,1-7,86.16c-.27,1.63-.54,3.26-.82,4.88C1062.37,783.58,1054.62,792.15,1044.62,793.75Z" fill="#f01111"/><path d="M982.4,610.63s-5.67-25.42-28.34-13.1c-17.17,9.32-27.6,29.78-32.51,47.67-3.7,13.5-2.79,36,15.51,38.5a39.66,39.66,0,0,0,33.2-11.12S989.68,658.29,982.4,610.63Z" fill="#f01111"/><path d="M1016.74,624.39v2.69c0,1,.05,2.38.11,4v.39c.05.81.1,1.68.15,2.61a1.65,1.65,0,0,1,0,.39c.05.57.11,1.16.13,1.78.11,1.25.24,2.56.36,3.93a3.63,3.63,0,0,1,0,.49c.14,1.06.24,2.14.4,3.25,0,.39.1.78.15,1.16s.1.72.15,1.09c.18,1.11.36,2.27.57,3.44.08.42.16.83.24,1.22.17.93.39,1.89.59,2.84.1.46.21,1,.33,1.42s.24,1,.36,1.42c0,.13.08.24.1.36a58.1,58.1,0,0,0,2.66,7.8,3.69,3.69,0,0,1,.21.52,2.39,2.39,0,0,1,.23.49c.08.18.16.33.24.49s.13.29.21.42c.28.57.57,1.11.85,1.65s.65,1.12,1,1.63c.05.1.11.17.16.26.31.43.59.87.9,1.26a3.21,3.21,0,0,0,.23.29,19.52,19.52,0,0,0,2.15,2.37l1,.93c.26.18.49.36.72.54s.52.36.78.52a15.65,15.65,0,0,0,1.63.85c.26.11.54.24.83.34a11.08,11.08,0,0,0,2.71.67c.33.05.65.08,1,.11a3.93,3.93,0,0,0,.52,0c.57,0,1.16,0,1.76-.05a11.27,11.27,0,0,0,1.37-.15,9.29,9.29,0,0,0,1.25-.24.08.08,0,0,0,.13,0,20.09,20.09,0,0,0,2.2-.59.46.46,0,0,0,.15-.05c.36-.16.72-.29,1.06-.44a12.82,12.82,0,0,0,1.76-.9,2.25,2.25,0,0,0,.43-.26c.24-.15.47-.31.68-.46a.89.89,0,0,0,.18-.13,18.08,18.08,0,0,0,1.57-1.35l.75-.78a3.85,3.85,0,0,0,.69-.83c.13-.18.26-.33.39-.49a4.88,4.88,0,0,0,.36-.52c.24-.34.46-.7.67-1.06s.44-.75.65-1.11.39-.78.57-1.16a1.35,1.35,0,0,0,.13-.31c.15-.33.28-.7.42-1a6.7,6.7,0,0,0,.38-1,32.67,32.67,0,0,0,.93-3.25c.08-.36.15-.75.23-1.11s.16-.73.21-1.12c.17-1.11.3-2.24.43-3.35.08-.7.13-1.4.16-2.1,0-.41.05-.83.05-1.24a10.94,10.94,0,0,0,0-1.22v-.93c0-.7,0-1.37,0-2v-.16c0-.36,0-.72-.05-1.06,0-.13,0-.26,0-.39,0-.52,0-1-.1-1.53-.05-1-.16-1.89-.24-2.71a.57.57,0,0,0,0-.21c-.08-.62-.14-1.19-.21-1.71,0-.17-.05-.33-.08-.49-.21-1.4-.36-2.22-.36-2.22v-.08s0-.08,0-.13-.13-.43-.21-.8-.23-.9-.39-1.47-.33-1.09-.52-1.73c-.1-.36-.23-.74-.36-1.13s-.29-.83-.42-1.24c-.28-.81-.62-1.68-1-2.56s-.72-1.83-1.13-2.79c-.28-.62-.57-1.27-.88-1.92-.52-1-1-2.07-1.63-3.12-.21-.39-.41-.78-.65-1.14a48.46,48.46,0,0,0-3-4.39c-.57-.72-1.13-1.39-1.7-2a26.32,26.32,0,0,0-2.84-2.77s-.21-.18-.52-.41l-.39-.34c-.29-.26-.62-.54-1-.85l-.88-.67a8.76,8.76,0,0,0-1-.72c-.7-.52-1.47-1-2.3-1.58a3.46,3.46,0,0,0-.65-.39c-.21-.13-.41-.26-.65-.39-.43-.23-.87-.49-1.34-.72a22.85,22.85,0,0,0-2.82-1.27,14.47,14.47,0,0,0-3.08-.85,8,8,0,0,0-1.28-.15c-.17,0-.33,0-.49,0h-.54a8.38,8.38,0,0,0-1,.08,6.22,6.22,0,0,0-.93.17,4.07,4.07,0,0,0-.78.3,5.11,5.11,0,0,0-.72.47,5,5,0,0,0-.65.61,6.8,6.8,0,0,0-.6.73,10.1,10.1,0,0,0-.55.85c-.17.31-.34.63-.49,1s-.3.68-.44,1-.27.74-.39,1.11-.24.78-.35,1.16-.21.81-.3,1.22-.18.82-.27,1.24-.16.84-.23,1.25-.14.84-.2,1.26-.11.84-.17,1.25-.09.82-.13,1.22-.08.79-.11,1.19-.06.76-.08,1.13,0,.71-.06,1.06c0,.17,0,.34,0,.51s0,.16,0,.24a.57.57,0,0,0,0,.11.61.61,0,0,0,0,.11.15.15,0,0,1,0,.16c0,.41,0,.8,0,1.13S1016.74,624,1016.74,624.39Zm.26-4.63a53.07,53.07,0,0,1,.7-5.42c.07-.33.11-.55.13-.67C1017.74,614.25,1017.26,617.23,1017,619.76Z" fill="#f01111"/></g></g></svg>