<svg id="Layer_1" data-name="Layer 1" xmlns="http://www.w3.org/2000/svg" viewBox="0 0 299 70"><title>Artboard 1</title><polygon points="20.89 69.94 35.83 54.99 54.64 54.99 69.78 39.85 50.97 39.85 69.78 21.03 69.78 0.53 0.38 69.94 20.89 69.94" fill="#282828"/><polygon points="93.73 0.91 93.73 69.52 108.68 54.57 108.68 37.78 118.29 47.39 129 58.11 149.31 37.94 149.31 16.28 129 36.6 93.73 0.91" fill="#282828"/><polygon points="231.49 47.71 249.59 65.7 260.23 55.07 252.76 47.71 231.49 47.71" fill="#282828"/><polygon points="299 -0.2 258.01 -0.2 243.06 14.73 271.93 43.43 282.5 32.86 264.39 14.75 284.05 14.75 299 -0.2" fill="#282828"/><polygon points="206.69 -0.2 187.03 -0.2 172.11 14.75 172.11 55.57 172.11 70.13 187.06 55.34 187.06 15.13 206.8 15.13 206.8 35.79 206.84 35.75 206.9 50.4 221.74 35.59 221.74 20.94 221.74 20.86 221.74 -0.2 217.4 -0.2 206.69 -0.2" fill="#282828"/></svg>